<svg width="100%"  viewBox="0 0 1456 181" fill="none" xmlns="http://www.w3.org/2000/svg">
<path d="M50.3272 82.205C25.8272 64.075 15.7822 52.56 15.7822 32.96C15.7822 16.545 25.5822 2.82499 49.5922 2.82499C73.8472 2.82499 81.1972 10.665 82.9122 40.8H85.3622V2.82499H83.6472C81.6872 3.56 79.9722 3.56 77.2772 3.56C70.6622 3.56 63.5572 0.374994 49.3472 0.374994C21.9072 0.374994 2.30723 14.83 2.30723 40.31C2.30723 62.85 16.7622 78.04 40.5272 95.68C65.2722 113.81 75.0722 126.305 75.0722 145.66C75.0722 163.79 63.5572 178.245 40.2822 178.245C16.7622 178.245 4.02223 170.16 3.04223 135.86H0.592227V178H2.30723C4.02223 177.265 6.22723 176.775 8.92223 176.775C15.2922 176.775 24.1122 180.45 40.5272 180.45C68.7022 180.45 88.5472 165.015 88.5472 137.82C88.5472 115.28 74.3372 99.845 50.3272 82.205ZM189.872 176.04H168.557V4.785H195.262C209.472 4.785 212.412 19.975 212.412 42.27H214.862V2.82499H106.082V42.27H108.532C108.532 19.975 111.472 4.785 125.682 4.785H152.387V176.04H130.827V178H189.872V176.04ZM344.153 89.555C344.153 26.835 325.043 0.374994 288.048 0.374994C251.053 0.374994 231.698 26.835 231.698 89.555C231.698 153.255 250.808 180.45 288.048 180.45C325.043 180.45 344.153 153.255 344.153 89.555ZM327.003 89.555C327.003 155.215 316.468 178.49 288.048 178.49C259.383 178.49 249.093 155.215 249.093 89.555C249.093 25.12 259.138 2.335 287.803 2.335C316.713 2.335 327.003 25.12 327.003 89.555ZM464.276 139.78C464.276 157.91 460.111 176.04 444.676 176.04H398.861V92.495H419.931C432.426 92.495 438.551 94.945 447.126 101.56V81.47C439.041 87.35 432.426 90.535 419.931 90.535H398.861V4.785H444.186C459.376 4.785 463.786 22.915 463.786 41.045H466.236V2.82499H361.866V4.785H382.446V176.04H361.866V178H466.726V139.78H464.276ZM535.781 82.205C511.281 64.075 501.236 52.56 501.236 32.96C501.236 16.545 511.036 2.82499 535.046 2.82499C559.301 2.82499 566.651 10.665 568.366 40.8H570.816V2.82499H569.101C567.141 3.56 565.426 3.56 562.731 3.56C556.116 3.56 549.011 0.374994 534.801 0.374994C507.361 0.374994 487.761 14.83 487.761 40.31C487.761 62.85 502.216 78.04 525.981 95.68C550.726 113.81 560.526 126.305 560.526 145.66C560.526 163.79 549.011 178.245 525.736 178.245C502.216 178.245 489.476 170.16 488.496 135.86H486.046V178H487.761C489.476 177.265 491.681 176.775 494.376 176.775C500.746 176.775 509.566 180.45 525.981 180.45C554.156 180.45 574.001 165.015 574.001 137.82C574.001 115.28 559.791 99.845 535.781 82.205ZM642.251 82.205C617.751 64.075 607.706 52.56 607.706 32.96C607.706 16.545 617.506 2.82499 641.516 2.82499C665.771 2.82499 673.121 10.665 674.836 40.8H677.286V2.82499H675.571C673.611 3.56 671.896 3.56 669.201 3.56C662.586 3.56 655.481 0.374994 641.271 0.374994C613.831 0.374994 594.231 14.83 594.231 40.31C594.231 62.85 608.686 78.04 632.451 95.68C657.196 113.81 666.996 126.305 666.996 145.66C666.996 163.79 655.481 178.245 632.206 178.245C608.686 178.245 595.946 170.16 594.966 135.86H592.516V178H594.231C595.946 177.265 598.151 176.775 600.846 176.775C607.216 176.775 616.036 180.45 632.451 180.45C660.626 180.45 680.471 165.015 680.471 137.82C680.471 115.28 666.261 99.845 642.251 82.205ZM801.151 139.78C801.151 157.91 796.986 176.04 781.551 176.04H735.736V92.495H756.806C769.301 92.495 775.426 94.945 784.001 101.56V81.47C775.916 87.35 769.301 90.535 756.806 90.535H735.736V4.785H781.061C796.251 4.785 800.661 22.915 800.661 41.045H803.111V2.82499H698.741V4.785H719.321V176.04H698.741V178H803.601V139.78H801.151ZM923.861 139.78C923.861 161.585 918.471 176.04 903.036 176.04H859.671V4.785H880.251V2.82499H822.676V4.785H843.256V176.04H822.676V178H926.311V139.78H923.861ZM1045.64 139.78C1045.64 161.585 1040.25 176.04 1024.82 176.04H981.454V4.785H1002.03V2.82499H944.459V4.785H965.039V176.04H944.459V178H1048.09V139.78H1045.64ZM1168.65 139.78C1168.65 157.91 1164.49 176.04 1149.05 176.04H1103.24V92.495H1124.31C1136.8 92.495 1142.93 94.945 1151.5 101.56V81.47C1143.42 87.35 1136.8 90.535 1124.31 90.535H1103.24V4.785H1148.56C1163.75 4.785 1168.16 22.915 1168.16 41.045H1170.61V2.82499H1066.24V4.785H1086.82V176.04H1066.24V178H1171.1V139.78H1168.65ZM1303.82 89.555C1303.82 26.835 1284.71 0.374994 1247.71 0.374994C1210.72 0.374994 1191.36 26.835 1191.36 89.555C1191.36 153.255 1210.47 180.45 1247.71 180.45C1284.71 180.45 1303.82 153.255 1303.82 89.555ZM1286.67 89.555C1286.67 155.215 1276.13 178.49 1247.71 178.49C1219.05 178.49 1208.76 155.215 1208.76 89.555C1208.76 25.12 1218.8 2.335 1247.47 2.335C1276.38 2.335 1286.67 25.12 1286.67 89.555ZM1433.74 16.79C1433.74 6.99 1438.64 4.785 1455.05 4.785V2.82499H1408.01V4.785C1424.67 4.785 1431.29 6.25499 1431.29 16.79V145.905L1360.73 2.82499H1321.53V4.785H1342.11V163.3C1342.11 173.835 1337.21 176.04 1320.79 176.04V178H1367.34V176.04C1350.19 176.04 1344.56 173.835 1344.56 163.3V7.23499L1430.55 178H1433.74V16.79Z" fill="black"/>
</svg>
